G75*
%MOIN*%
%OFA0B0*%
%FSLAX25Y25*%
%IPPOS*%
%LPD*%
%AMOC8*
5,1,8,0,0,1.08239X$1,22.5*
%
%ADD10R,0.06299X0.07087*%
%ADD11R,0.07100X0.11900*%
%ADD12OC8,0.10000*%
%ADD13R,0.06299X0.07098*%
%ADD14C,0.02400*%
%ADD15C,0.01000*%
%ADD16C,0.04000*%
D10*
X0026288Y0011800D03*
X0037312Y0011800D03*
D11*
X0056800Y0018350D03*
X0056800Y0035250D03*
D12*
X0011800Y0011800D03*
X0011800Y0026800D03*
X0011800Y0041800D03*
D13*
X0026202Y0041800D03*
X0037398Y0041800D03*
X0037398Y0026800D03*
X0026202Y0026800D03*
D14*
X0026100Y0026100D02*
X0026100Y0012600D01*
X0012600Y0012600D01*
X0011800Y0011800D01*
X0011800Y0026800D02*
X0011700Y0027000D01*
X0026100Y0041400D01*
X0041400Y0035100D02*
X0056700Y0035100D01*
X0036900Y0026100D02*
X0036900Y0018900D01*
X0056700Y0018900D01*
X0036900Y0018900D02*
X0036900Y0012600D01*
D15*
X0037312Y0011800D01*
X0026288Y0011800D02*
X0026100Y0012600D01*
X0026100Y0026100D02*
X0026202Y0026800D01*
X0036900Y0026100D02*
X0037398Y0026800D01*
X0037800Y0027000D01*
X0037800Y0041400D01*
X0037398Y0041800D01*
X0026202Y0041800D02*
X0026100Y0041400D01*
X0056700Y0035100D02*
X0056800Y0035250D01*
X0056700Y0018900D02*
X0056800Y0018350D01*
D16*
X0041400Y0035100D03*
M02*
