G75*
%MOIN*%
%OFA0B0*%
%FSLAX25Y25*%
%IPPOS*%
%LPD*%
%AMOC8*
5,1,8,0,0,1.08239X$1,22.5*
%
%ADD10C,0.00000*%
%ADD11C,0.00300*%
%ADD12C,0.00600*%
D10*
X0001800Y0001800D02*
X0001800Y0050501D01*
X0071721Y0050501D01*
X0071721Y0001800D01*
X0001800Y0001800D01*
D11*
X0021322Y0009934D02*
X0021322Y0011869D01*
X0021806Y0012352D01*
X0023257Y0012352D01*
X0023257Y0009450D01*
X0021806Y0009450D01*
X0021322Y0009934D01*
X0024269Y0009450D02*
X0024269Y0012352D01*
X0026203Y0012352D02*
X0024269Y0009450D01*
X0026203Y0009450D02*
X0026203Y0012352D01*
X0027215Y0011869D02*
X0027699Y0012352D01*
X0028666Y0012352D01*
X0029150Y0011869D01*
X0029150Y0009934D01*
X0028666Y0009450D01*
X0027699Y0009450D01*
X0027215Y0009934D01*
X0027215Y0010901D01*
X0028183Y0010901D01*
X0028401Y0016950D02*
X0027434Y0016950D01*
X0026950Y0017434D01*
X0026950Y0019369D01*
X0027434Y0019852D01*
X0028401Y0019852D01*
X0028885Y0019369D01*
X0029897Y0018885D02*
X0030864Y0019852D01*
X0030864Y0016950D01*
X0029897Y0016950D02*
X0031831Y0016950D01*
X0028885Y0017434D02*
X0028401Y0016950D01*
X0028257Y0024450D02*
X0027289Y0024450D01*
X0027773Y0024450D02*
X0027773Y0027352D01*
X0028257Y0027352D02*
X0027289Y0027352D01*
X0026293Y0026869D02*
X0026293Y0024934D01*
X0025809Y0024450D01*
X0024841Y0024450D01*
X0024358Y0024934D01*
X0024358Y0026869D01*
X0024841Y0027352D01*
X0025809Y0027352D01*
X0026293Y0026869D01*
X0029269Y0026869D02*
X0029269Y0025901D01*
X0029752Y0025417D01*
X0031203Y0025417D01*
X0032215Y0024934D02*
X0032215Y0025901D01*
X0033183Y0025901D01*
X0034150Y0024934D02*
X0033666Y0024450D01*
X0032699Y0024450D01*
X0032215Y0024934D01*
X0031203Y0024450D02*
X0031203Y0027352D01*
X0029752Y0027352D01*
X0029269Y0026869D01*
X0032215Y0026869D02*
X0032699Y0027352D01*
X0033666Y0027352D01*
X0034150Y0026869D01*
X0034150Y0024934D01*
X0031831Y0031950D02*
X0029897Y0031950D01*
X0031831Y0033885D01*
X0031831Y0034369D01*
X0031348Y0034852D01*
X0030380Y0034852D01*
X0029897Y0034369D01*
X0028885Y0034369D02*
X0028885Y0033401D01*
X0028401Y0032917D01*
X0026950Y0032917D01*
X0027917Y0032917D02*
X0028885Y0031950D01*
X0026950Y0031950D02*
X0026950Y0034852D01*
X0028401Y0034852D01*
X0028885Y0034369D01*
X0028666Y0039450D02*
X0027699Y0039450D01*
X0027215Y0039934D01*
X0027215Y0040417D01*
X0027699Y0040901D01*
X0028666Y0040901D01*
X0029150Y0041385D01*
X0029150Y0041869D01*
X0028666Y0042352D01*
X0027699Y0042352D01*
X0027215Y0041869D01*
X0026203Y0042352D02*
X0024752Y0042352D01*
X0024269Y0041869D01*
X0024269Y0040901D01*
X0024752Y0040417D01*
X0026203Y0040417D01*
X0026203Y0039450D02*
X0026203Y0042352D01*
X0023257Y0042352D02*
X0023257Y0039450D01*
X0023257Y0040417D02*
X0021322Y0042352D01*
X0020310Y0042352D02*
X0018859Y0042352D01*
X0018375Y0041869D01*
X0018375Y0040901D01*
X0018859Y0040417D01*
X0020310Y0040417D01*
X0019343Y0040417D02*
X0018375Y0039450D01*
X0020310Y0039450D02*
X0020310Y0042352D01*
X0022773Y0040901D02*
X0021322Y0039450D01*
X0028666Y0039450D02*
X0029150Y0039934D01*
X0028885Y0046950D02*
X0027917Y0047917D01*
X0028401Y0047917D02*
X0026950Y0047917D01*
X0026950Y0046950D02*
X0026950Y0049852D01*
X0028401Y0049852D01*
X0028885Y0049369D01*
X0028885Y0048401D01*
X0028401Y0047917D01*
X0029897Y0046950D02*
X0031831Y0046950D01*
X0030864Y0046950D02*
X0030864Y0049852D01*
X0029897Y0048885D01*
X0049982Y0033769D02*
X0051917Y0031834D01*
X0051434Y0031350D01*
X0050466Y0031350D01*
X0049982Y0031834D01*
X0049982Y0033769D01*
X0050466Y0034252D01*
X0051434Y0034252D01*
X0051917Y0033769D01*
X0051917Y0031834D01*
X0052929Y0033769D02*
X0054864Y0031834D01*
X0054864Y0031350D01*
X0055875Y0031350D02*
X0057810Y0031350D01*
X0055875Y0033285D01*
X0055875Y0033769D01*
X0056359Y0034252D01*
X0057327Y0034252D01*
X0057810Y0033769D01*
X0054864Y0034252D02*
X0052929Y0034252D01*
X0052929Y0033769D01*
X0052929Y0029452D02*
X0054864Y0029452D01*
X0054864Y0028001D01*
X0053896Y0028485D01*
X0053413Y0028485D01*
X0052929Y0028001D01*
X0052929Y0027034D01*
X0053413Y0026550D01*
X0054380Y0026550D01*
X0054864Y0027034D01*
X0055875Y0026550D02*
X0057810Y0026550D01*
X0056843Y0026550D02*
X0056843Y0029452D01*
X0057810Y0028485D01*
X0061769Y0028485D02*
X0061769Y0028969D01*
X0062252Y0029452D01*
X0063220Y0029452D01*
X0063703Y0028969D01*
X0064715Y0028969D02*
X0064715Y0028001D01*
X0065199Y0027517D01*
X0066650Y0027517D01*
X0065683Y0027517D02*
X0064715Y0026550D01*
X0063703Y0026550D02*
X0061769Y0028485D01*
X0061769Y0026550D02*
X0063703Y0026550D01*
X0062736Y0024652D02*
X0062736Y0021750D01*
X0063703Y0021750D02*
X0061769Y0021750D01*
X0062252Y0019852D02*
X0063220Y0019852D01*
X0063703Y0019369D01*
X0064715Y0019369D02*
X0065199Y0019852D01*
X0066166Y0019852D01*
X0066650Y0019369D01*
X0066650Y0017434D01*
X0066166Y0016950D01*
X0065199Y0016950D01*
X0064715Y0017434D01*
X0063703Y0016950D02*
X0061769Y0018885D01*
X0061769Y0019369D01*
X0062252Y0019852D01*
X0064715Y0022234D02*
X0065199Y0021750D01*
X0066166Y0021750D01*
X0066650Y0022234D01*
X0066650Y0024169D01*
X0066166Y0024652D01*
X0065199Y0024652D01*
X0064715Y0024169D01*
X0063703Y0023685D02*
X0062736Y0024652D01*
X0066650Y0026550D02*
X0066650Y0029452D01*
X0065199Y0029452D01*
X0064715Y0028969D01*
X0064715Y0031350D02*
X0065683Y0032317D01*
X0065199Y0032317D02*
X0066650Y0032317D01*
X0066650Y0031350D02*
X0066650Y0034252D01*
X0065199Y0034252D01*
X0064715Y0033769D01*
X0064715Y0032801D01*
X0065199Y0032317D01*
X0063703Y0031350D02*
X0061769Y0031350D01*
X0062736Y0031350D02*
X0062736Y0034252D01*
X0063703Y0033285D01*
X0051917Y0028969D02*
X0051917Y0027034D01*
X0049982Y0028969D01*
X0049982Y0027034D01*
X0050466Y0026550D01*
X0051434Y0026550D01*
X0051917Y0027034D01*
X0051917Y0028969D02*
X0051434Y0029452D01*
X0050466Y0029452D01*
X0049982Y0028969D01*
X0049960Y0024652D02*
X0048993Y0024652D01*
X0048509Y0024169D01*
X0048509Y0023685D01*
X0048993Y0023201D01*
X0048509Y0022717D01*
X0048509Y0022234D01*
X0048993Y0021750D01*
X0049960Y0021750D01*
X0050444Y0022234D01*
X0051456Y0022234D02*
X0051456Y0022717D01*
X0051939Y0023201D01*
X0052423Y0023201D01*
X0051939Y0023201D02*
X0051456Y0023685D01*
X0051456Y0024169D01*
X0051939Y0024652D01*
X0052907Y0024652D01*
X0053391Y0024169D01*
X0054402Y0024169D02*
X0056337Y0022234D01*
X0055853Y0021750D01*
X0054886Y0021750D01*
X0054402Y0022234D01*
X0054402Y0024169D01*
X0054886Y0024652D01*
X0055853Y0024652D01*
X0056337Y0024169D01*
X0056337Y0022234D01*
X0057327Y0022234D02*
X0057327Y0021750D01*
X0057810Y0021750D01*
X0057810Y0022234D01*
X0057327Y0022234D01*
X0056843Y0019852D02*
X0056843Y0016950D01*
X0057810Y0016950D02*
X0055875Y0016950D01*
X0054864Y0017434D02*
X0052929Y0019369D01*
X0052929Y0017434D01*
X0053413Y0016950D01*
X0054380Y0016950D01*
X0054864Y0017434D01*
X0054864Y0019369D01*
X0054380Y0019852D01*
X0053413Y0019852D01*
X0052929Y0019369D01*
X0051917Y0018885D02*
X0051917Y0017434D01*
X0051434Y0016950D01*
X0049982Y0016950D01*
X0049982Y0018885D01*
X0048971Y0018401D02*
X0048003Y0018401D01*
X0048487Y0019369D02*
X0048003Y0019852D01*
X0048487Y0019369D02*
X0048487Y0016950D01*
X0047014Y0021750D02*
X0045563Y0021750D01*
X0045563Y0023685D01*
X0044551Y0023201D02*
X0043584Y0023201D01*
X0044067Y0024169D02*
X0043584Y0024652D01*
X0044067Y0024169D02*
X0044067Y0021750D01*
X0047014Y0021750D02*
X0047498Y0022234D01*
X0047498Y0023685D01*
X0048993Y0023201D02*
X0049477Y0023201D01*
X0050444Y0024169D02*
X0049960Y0024652D01*
X0051456Y0022234D02*
X0051939Y0021750D01*
X0052907Y0021750D01*
X0053391Y0022234D01*
X0056843Y0019852D02*
X0057810Y0018885D01*
X0061769Y0016950D02*
X0063703Y0016950D01*
X0023346Y0024450D02*
X0021411Y0024450D01*
X0022379Y0024450D02*
X0022379Y0027352D01*
X0023346Y0026385D01*
X0020400Y0026385D02*
X0019916Y0025901D01*
X0018948Y0025901D01*
X0018465Y0025417D01*
X0018465Y0024934D01*
X0018948Y0024450D01*
X0019916Y0024450D01*
X0020400Y0024934D01*
X0020400Y0025417D01*
X0019916Y0025901D01*
X0020400Y0026385D02*
X0020400Y0026869D01*
X0019916Y0027352D01*
X0018948Y0027352D01*
X0018465Y0026869D01*
X0018465Y0026385D01*
X0018948Y0025901D01*
D12*
X0016800Y0023800D02*
X0016800Y0021800D01*
X0014800Y0021800D01*
X0014800Y0016800D02*
X0016800Y0016800D01*
X0016800Y0014800D01*
X0016800Y0008800D02*
X0016800Y0006800D01*
X0014800Y0006800D01*
X0008800Y0006800D02*
X0006800Y0006800D01*
X0006800Y0008800D01*
X0006800Y0014800D02*
X0006800Y0016800D01*
X0008800Y0016800D01*
X0008800Y0021800D02*
X0006800Y0021800D01*
X0006800Y0023800D01*
X0006800Y0029800D02*
X0006800Y0031800D01*
X0008800Y0031800D01*
X0008800Y0036800D02*
X0006800Y0036800D01*
X0006800Y0038800D01*
X0006800Y0044800D02*
X0006800Y0046800D01*
X0008800Y0046800D01*
X0014800Y0046800D02*
X0016800Y0046800D01*
X0016800Y0044800D01*
X0016800Y0038800D02*
X0016800Y0036800D01*
X0014800Y0036800D01*
X0014800Y0031800D02*
X0016800Y0031800D01*
X0016800Y0029800D01*
X0045400Y0038200D02*
X0045400Y0015400D01*
X0051900Y0015400D01*
X0056800Y0009500D02*
X0056800Y0006500D01*
X0055300Y0008000D02*
X0058300Y0008000D01*
X0061700Y0015400D02*
X0068200Y0015400D01*
X0068200Y0038200D01*
X0061700Y0038200D01*
X0051900Y0038200D02*
X0045400Y0038200D01*
M02*
